<?xml version="1.0" ?><!DOCTYPE svg  PUBLIC '-//W3C//DTD SVG 1.0//EN'  'http://www.w3.org/TR/2001/REC-SVG-20010904/DTD/svg10.dtd'><svg height="20" style="overflow:visible;enable-background:new 0 0 32 20" viewBox="0 0 32 20" width="32" xml:space="preserve" xmlns="http://www.w3.org/2000/svg" xmlns:xlink="http://www.w3.org/1999/xlink"><g><g id="Football_Field_1_"><g id="Football_Field"><rect height="20" id="Field" style="fill:#34B67A;" width="32"/><path d="M2,2v16h28V2H2z M16.5,7.1C17.9,7.3,19,8.5,19,10        c0,1.5-1.1,2.7-2.5,2.9V7.1z M3,7h3v6H3V7z M15.5,12.9C14.1,12.7,13,11.5,13,10c0-1.5,1.1-2.7,2.5-2.9V12.9z M15.5,6.1        C13.5,6.3,12,8,12,10c0,2,1.5,3.7,3.5,3.9V17H3v-3h4V6H3V3h12.5V6.1z M29,13h-3V7h3V13z M29,6h-4v8h4v3H16.5v-3.1        c2-0.2,3.5-1.9,3.5-3.9c0-2-1.5-3.7-3.5-3.9V3H29V6z" id="Guides" style="fill:#E6E6E6;"/></g></g></g></svg>